<?xml version="1.0" standalone="no"?>
<!DOCTYPE svg PUBLIC "-//W3C//DTD SVG 20010904//EN"
 "http://www.w3.org/TR/2001/REC-SVG-20010904/DTD/svg10.dtd">
<svg version="1.0" xmlns="http://www.w3.org/2000/svg"
 width="512.000000pt" height="512.000000pt" viewBox="0 0 512.000000 512.000000"
 preserveAspectRatio="xMidYMid meet">
<metadata>
Created by potrace 1.11, written by Peter Selinger 2001-2013
</metadata>
<g transform="translate(0.000000,512.000000) scale(0.100000,-0.100000)"
fill="#000000" stroke="none">
<path d="M2260 4785 c-253 -36 -464 -101 -685 -209 -249 -123 -403 -233 -601
-430 -197 -198 -307 -352 -430 -601 -114 -234 -185 -474 -215 -734 -19 -171
-7 -495 25 -664 196 -1033 1071 -1785 2121 -1824 551 -20 1098 164 1513 510
103 86 283 274 356 370 576 768 609 1804 83 2599 -331 501 -858 850 -1454 964
-120 23 -169 27 -378 30 -167 2 -269 -1 -335 -11z m584 -476 c688 -112 1250
-621 1425 -1291 48 -185 56 -248 56 -458 -1 -209 -14 -316 -62 -480 -170 -590
-633 -1053 -1223 -1223 -164 -48 -271 -61 -480 -62 -210 0 -273 8 -458 56
-601 157 -1074 624 -1251 1235 -61 209 -80 511 -46 736 122 818 813 1457 1630
1507 149 9 267 3 409 -20z"/>
<path d="M2120 3379 c-14 -6 -36 -20 -48 -32 -54 -50 -52 -22 -52 -790 l0
-714 23 -33 c33 -49 81 -74 142 -74 49 1 82 19 636 339 370 214 597 351 620
375 63 64 62 165 -3 226 -32 30 -1127 672 -1194 700 -38 16 -88 17 -124 3z"/>
</g>
</svg>
